Coordinates
version=1
nRows=16
nColumns=22
inDegrees=yes

Units are S.I. units (second, meters, Newtons, ...)
If the header above contains a line with 'inDegrees', this indicates whether rotational values are in degrees (yes) or radians (no).

endheader
time	pelvis_tilt	pelvis_list	pelvis_rotation	pelvis_tx	pelvis_ty	pelvis_tz	hip_flexion_r	hip_adduction_r	hip_rotation_r	knee_angle_r	ankle_angle_r	subtalar_angle_r	hip_flexion_l	hip_adduction_l	hip_rotation_l	knee_angle_l	ankle_angle_l	subtalar_angle_l	lumbar_extension	lumbar_bending	lumbar_rotation
      4.62000000	     -0.85912979	     -0.32031923	    296.75829105	     -0.57788459	      0.92396453	      0.67390053	     23.67969587	     -3.87757432	      9.53348466	     -8.96977710	      3.60774205	     15.12380878	     -5.96943647	      6.54878695	     21.30244932	    -16.35799469	     17.39860404	    -13.13619463	     -7.16473459	     -4.52711338	    -12.04260955
      4.63000000	     -0.60347129	     -0.42913079	    297.25125937	     -0.57633387	      0.92295062	      0.68215276	     23.21754193	     -3.91789968	      9.55575103	     -6.68609719	      3.44631142	     15.49254342	     -7.01978451	      6.36585419	     21.63495136	    -15.85489903	     17.59954412	    -13.11614635	     -7.26597001	     -4.73898612	    -12.10143418
      4.64000000	     -0.32253205	     -0.51226647	    297.73581168	     -0.57470662	      0.92179742	      0.69041057	     22.84152548	     -3.99328506	      9.53263001	     -4.75044248	      3.31378857	     15.75567654	     -8.04972306	      6.21701367	     21.94012335	    -15.37455414	     17.79543535	    -13.10433839	     -7.36569982	     -4.97718152	    -12.17485204
      4.65000000	     -0.02328821	     -0.56495159	    298.20512585	     -0.57302147	      0.92050056	      0.69867622	     22.57887104	     -4.09046306	      9.47052417	     -3.22532531	      3.23982713	     15.92154278	     -9.04485445	      6.10219650	     22.20544813	    -14.93213397	     17.99567021	    -13.10222940	     -7.45396034	     -5.23949432	    -12.26342859
      4.66000000	      0.28129330	     -0.56341001	    298.67621977	     -0.57125226	      0.91904290	      0.70690939	     22.46291328	     -4.21468234	      9.37096830	     -2.14613254	      3.19602818	     15.98390087	     -9.96844330	      6.02469653	     22.47126370	    -14.54101159	     18.16945816	    -13.09764001	     -7.50507523	     -5.52326830	    -12.36174089
      4.67000000	      0.58743364	     -0.52147446	    299.13144959	     -0.56944709	      0.91744538	      0.71513968	     22.48662313	     -4.34646952	      9.29909390	     -1.53549932	      3.22312027	     15.95169826	    -10.83419607	      5.97201331	     22.69564717	    -14.19438873	     18.34717961	    -13.10177759	     -7.53189589	     -5.81983657	    -12.49564891
      4.68000000	      0.88426755	     -0.45284943	    299.57730711	     -0.56756607	      0.91574144	      0.72337148	     22.62110982	     -4.47727220	      9.26900537	     -1.36588488	      3.29028389	     15.80971041	    -11.64019963	      5.93352319	     22.88855785	    -13.91604848	     18.52042551	    -13.12325072	     -7.53881239	     -6.10587424	    -12.62282067
      4.69000000	      1.16731017	     -0.34614701	    300.01621599	     -0.56562064	      0.91394047	      0.73160688	     22.86794521	     -4.60986695	      9.29509398	     -1.60887322	      3.34931941	     15.55444509	    -12.37151090	      5.91238666	     23.08506717	    -13.71051161	     18.67722768	    -13.15947508	     -7.51313512	     -6.38737427	    -12.75286464
      4.70000000	      1.42131665	     -0.19650251	    300.45138437	     -0.56359878	      0.91205864	      0.73988826	     23.20822551	     -4.73736295	      9.38839422	     -2.19633984	      3.38131516	     15.28101695	    -13.02773057	      5.89203628	     23.30355524	    -13.55397951	     18.81838649	    -13.18613247	     -7.43147232	     -6.65558499	    -12.87963678
      4.71000000	      1.63781693	     -0.02472515	    300.89840953	     -0.56149917	      0.91015859	      0.74815257	     23.62173635	     -4.84480549	      9.50048787	     -3.09450530	      3.31798560	     14.78486784	    -13.57536459	      5.86806701	     23.51261508	    -13.53617404	     18.92703328	    -13.28813405	     -7.32332043	     -6.88454344	    -13.01614331
      4.72000000	      1.79214676	      0.16463882	    301.34694149	     -0.55932184	      0.90828433	      0.75647173	     24.08060950	     -4.90810092	      9.64317928	     -4.20529058	      3.13021390	     14.43104956	    -14.04256890	      5.80535966	     23.74542168	    -13.58357250	     19.00283486	    -13.36374899	     -7.16138864	     -7.05224542	    -13.14592875
      4.73000000	      1.85149846	      0.34965124	    301.79919974	     -0.55708015	      0.90650745	      0.76484591	     24.57605627	     -4.88538515	      9.75710311	     -5.48191702	      2.76788164	     14.17314040	    -14.42268526	      5.66529798	     23.99309118	    -13.70783245	     19.03469352	    -13.43492887	     -6.94519506	     -7.11386412	    -13.26262799
      4.74000000	      1.81900107	      0.52762384	    302.24844744	     -0.55482852	      0.90488187	      0.77317781	     25.11799093	     -4.77587913	      9.82708379	     -6.89198525	      2.21839265	     14.00068595	    -14.65643416	      5.47421313	     24.19104322	    -14.01609550	     19.04901926	    -13.51777919	     -6.69415125	     -7.07296099	    -13.34166919
      4.75000000	      1.68535425	      0.68498129	    302.67937538	     -0.55256571	      0.90348159	      0.78147984	     25.71195478	     -4.56199074	      9.82243817	     -8.42289412	      1.55538624	     13.98214157	    -14.76717289	      5.22002868	     24.35928773	    -14.47255645	     19.01102409	    -13.58207534	     -6.40701529	     -6.91205872	    -13.34960348
      4.76000000	      1.43257621	      0.79445547	    303.08072089	     -0.55028842	      0.90238710	      0.78979217	     26.33685506	     -4.21467822	      9.72918647	    -10.04005039	      0.86977721	     14.10583138	    -14.77732317	      4.87202414	     24.47526482	    -15.05613621	     18.88015953	    -13.61406695	     -6.08729092	     -6.59685952	    -13.29761151
      4.77000000	      1.07501566	      0.84034423	    303.44253502	     -0.54798094	      0.90165608	      0.79812276	     26.96452162	     -3.74230306	      9.53954933	    -11.71174807	      0.26000916	     14.32630418	    -14.70132096	      4.44270268	     24.52029248	    -15.77975848	     18.63804264	    -13.61059878	     -5.75442131	     -6.13142263	    -13.16856872
